<svg id="a2f8b018-5a16-4c2b-806f-762078367d66" data-name="Layer 2" xmlns="http://www.w3.org/2000/svg" viewBox="0 0 701.302 194.216"><path d="M123.1,5.969c1.45.146,2.78.293,2.94.333.359.079.492.385,1.37,2.993a28.4,28.4,0,0,1,1.783,9.446c.013,1.557.053,2.009.226,2.275a2.948,2.948,0,0,0,2.115.745c.972.093,1.211-.12,1.8-1.53a29.817,29.817,0,0,1,6.32-8.994l1.676-1.716,3.074,1.038,3.073,1.038.146.944a37.667,37.667,0,0,1,.452,6.067,23.939,23.939,0,0,1-.6,6.053c-.147.586-.293,1.2-.333,1.344-.159.705.652,1.437,2.116,1.9.7.226,1.237-.067,1.836-1,1.463-2.315,4.882-5.375,8.74-7.85l1.53-.971.626.346c.5.293,3.485,2.115,4.643,2.847.293.173.306.24.226,1.184a32.1,32.1,0,0,1-2.82,11.681c-.892,1.836-.892,2.129.066,2.94,1.251,1.078,1.929,1.145,2.767.266a27.853,27.853,0,0,1,6.506-4.244c2.714-1.25,5.362-2.2,5.747-2.075A29.015,29.015,0,0,1,181.54,33.3l2.182,2.168-.439,1.317c-1.49,4.55-3.659,8.7-5.641,10.87-.586.639-.812,1.211-.652,1.65a8.992,8.992,0,0,0,.865,1.224,3.211,3.211,0,0,1,.678,1.091c-.053.053-1.3,1.037-2.767,2.181s-2.781,2.182-2.927,2.3-.492.386-.745.585l-.479.36-1.65-1.943a74.075,74.075,0,0,0-46.99-25.65,67.687,67.687,0,0,0-11.069-.559,54.73,54.73,0,0,0-9.114.705,74.08,74.08,0,0,0-46.471,26.09c-.612.731-1.331,1.636-1.61,2.009a3.566,3.566,0,0,1-.585.691c-.133,0-7.012-5.042-7.052-5.162a6.147,6.147,0,0,1,.705-1.21,4.227,4.227,0,0,0,.732-1.45,1.87,1.87,0,0,0-.585-1.158c-.08-.08-.453-.492-.825-.931a34.7,34.7,0,0,1-5.441-10.55l-.227-.706,1.73-1.822c.958-1,1.969-2.049,2.262-2.342l.532-.5,1.716.558A30.26,30.26,0,0,1,57.9,38.391c.865.745,1.038.838,1.53.838.452,0,.678-.106,1.384-.665,1.2-.944,1.25-1.344.412-2.794a25.507,25.507,0,0,1-2.262-5.92c-.558-2.235-1.264-7.011-1.051-7.078.054-.027,1.251-.785,2.635-1.7a26.185,26.185,0,0,1,2.753-1.663,25.786,25.786,0,0,1,3.965,2.382,29.665,29.665,0,0,1,6.453,5.933c1.064,1.4,1.277,1.464,2.647.785a2.52,2.52,0,0,0,1.224-.891c.226-.426.226-.519-.266-2.328a22.679,22.679,0,0,1-.505-2.395,55.767,55.767,0,0,1,.013-8.7c.173-1.637.2-1.69.532-1.809.186-.08,1.5-.559,2.927-1.078s2.674-.945,2.794-.945a38.2,38.2,0,0,1,4.417,4.391,24.929,24.929,0,0,1,3.9,6.013c.519,1.144.931,1.57,1.5,1.57a5.331,5.331,0,0,0,2.3-.732c.253-.266.279-.465.319-2.94a25.2,25.2,0,0,1,.958-7.051,30.724,30.724,0,0,1,1.663-4.976c.067,0,1.3-.146,2.754-.332s2.847-.36,3.127-.386l.518-.054.958,1.477a31.348,31.348,0,0,1,4.737,10.617c.332,1.663.532,1.849,2.022,1.849,1.1,0,1.743-.213,1.9-.652a11.284,11.284,0,0,0,.28-1.343,31.514,31.514,0,0,1,4.8-11.216c.439-.678.638-.891.878-.891C120.3,5.7,121.631,5.823,123.1,5.969ZM78.446,59.438a16.293,16.293,0,0,1-.679,1.57c-.851,1.783-4.364,9.273-5.574,11.881-.493,1.064-1.184,2.528-1.53,3.26-.719,1.516-1.65,3.5-2.169,4.616l-.346.772H54.139c-9.459,0-14.222.04-14.7.146a9.875,9.875,0,0,0-3.313,1.357c-4.018,2.674-6.319,8.142-6.745,15.992a67.573,67.573,0,0,0,.239,8.581c.971,7.091,3.579,11.814,7.65,13.876,2.036,1.025.732.945,16.644,1l14.249.04.4.891c.346.759,2.328,4.976,4.324,9.207.292.625,1.144,2.448,1.9,4.058s1.623,3.459,1.929,4.124c1.517,3.233,1.73,3.685,1.73,3.792s-37.811.053-40.711-.067A30.154,30.154,0,0,1,30.258,143C18.5,139.037,10.767,129.485,7.933,115.409a63.427,63.427,0,0,1-1.064-7.6c-.16-2.076-.213-8.555-.066-10.71.545-8.755,2.634-16.125,6.239-22.006A31.51,31.51,0,0,1,26.36,62.924a31.845,31.845,0,0,1,6.133-2.341A50.193,50.193,0,0,1,38.8,59.412C40.183,59.305,78.446,59.332,78.446,59.438Zm122.2.24c6.825,1.33,11.774,4.483,15.22,9.672a31.747,31.747,0,0,1,2.541,5.415A37.59,37.59,0,0,1,219.59,90.65a22.65,22.65,0,0,1-6.652,13.477,25.238,25.238,0,0,1-14.249,6.293,4.738,4.738,0,0,0-1.437.28,2.776,2.776,0,0,0,.413.678c.226.306,1.49,2.089,2.807,3.951s3.193,4.5,4.164,5.854,2.634,3.712,3.725,5.255,2.342,3.3,2.794,3.925,1.863,2.594,3.126,4.39,3.353,4.71,4.617,6.493a34.137,34.137,0,0,1,2.235,3.353c-.053.079-4.324.133-10.51.133H200.179l-.279-.333c-.16-.173-.958-1.264-1.77-2.421s-2.98-4.2-4.8-6.759-4.084-5.761-5.055-7.118-2.555-3.605-3.539-4.989c-3.486-4.9-8.422-11.854-8.994-12.652l-.572-.825V92.313h8.821c9.566,0,9.712-.013,10.962-.745,1.863-1.091,2.7-2.914,2.7-5.907,0-3.206-.984-5.268-3.033-6.359-1.583-.839-1.291-.825-12.892-.825h-10.55v66.082l-4.218.093c-2.328.04-7.33.08-11.109.08l-6.891-.014v-85.4l25.118.04C199.115,59.385,199.181,59.4,200.645,59.678ZM100.225,90.85c.013,11.667.053,21.792.093,22.5a20.019,20.019,0,0,0,.9,4.843c1.757,5.774,5.668,8.594,11.415,8.262a9.566,9.566,0,0,0,6.706-2.728c1.929-1.836,3.126-4.443,3.911-8.528.186-1.011.213-3.485.253-23.388l.053-22.245,10.071.027,10.072.039.04,24.414c.026,15.313-.014,25.051-.093,26.142A27.082,27.082,0,0,1,141,129.964a24.045,24.045,0,0,1-11.987,11.442c-4.164,1.889-7.889,2.74-13.7,3.153a38.008,38.008,0,0,1-6.12.066c-6.479-.372-11.2-1.49-15.566-3.685a23.106,23.106,0,0,1-6.133-4.271,24.531,24.531,0,0,1-7.145-13.517c-.213-1.011-.226-3.206-.266-27.353l-.04-26.236,10.071.027,10.085.039ZM173.983,147.9c.186.12,1.4,1.091,2.688,2.129,2.9,2.368,3.02,2.607,2.128,3.9-.745,1.077-.692,1.45.306,2.594a30.914,30.914,0,0,1,5.428,9.606c.652,1.729.692,2.009.439,2.594a24.737,24.737,0,0,1-4.2,4.151c-.465.093-1.357-.146-3.658-1.024a29.118,29.118,0,0,1-8.369-4.657c-1.224-1.051-1.556-1.064-2.86-.04a2.283,2.283,0,0,0-.838,1.011c-.173.532-.213.413.785,2.249a30.592,30.592,0,0,1,2.687,9.007c.373,2.461.386,3.153.053,3.512a44.546,44.546,0,0,1-4.43,2.98,1.544,1.544,0,0,1-.891.16,27.214,27.214,0,0,1-5.043-3.127,32.97,32.97,0,0,1-5.055-4.882,10,10,0,0,0-.932-1.131c-.346-.28-1-.2-1.875.239-1.238.626-1.5,1.1-1.185,2.076.732,2.195.932,3.9.932,7.929-.014,3.738-.16,5.3-.559,5.827-.253.346-1.091.705-3.752,1.623-1.65.586-1.982.626-2.514.346a37.118,37.118,0,0,1-3.9-3.938,24.276,24.276,0,0,1-4.111-6.426c-.453-1.224-.865-1.41-2.329-1.091a3.386,3.386,0,0,0-1.33.533l-.333.319v2.381a28.092,28.092,0,0,1-1.623,9.539c-.665,2.142-.811,2.435-1.344,2.661a30.874,30.874,0,0,1-4.683.679c-1.024.08-1.091.066-1.49-.266a23.542,23.542,0,0,1-2.887-4.5,26.651,26.651,0,0,1-2.754-7.451c-.119-.745-.226-.971-.545-1.237-.346-.292-.519-.332-1.5-.332-1.6,0-1.729.133-2.141,2.195a22.356,22.356,0,0,1-1.557,4.989c-1.078,2.594-3.007,6-3.725,6.6-.386.319-.466.332-1.477.253a38.951,38.951,0,0,1-4.656-.6c-.479-.173-.679-.546-1.358-2.475a30.211,30.211,0,0,1-1.915-10c0-2.261-.093-2.461-1.4-2.767-1.77-.412-2.076-.253-2.781,1.5a28.992,28.992,0,0,1-5.494,8.062c-1.757,1.969-2.089,2.222-2.848,2.222a26.883,26.883,0,0,1-5.268-1.677c-.772-.492-1.038-2.461-1.024-7.37.013-3.326.039-3.619.372-5.056.519-2.208.546-2.474.293-2.86a4.356,4.356,0,0,0-2.368-1.171c-.572,0-.812.173-1.264.878-1.477,2.342-4.431,5.069-8.209,7.6-1.357.905-1.823,1.144-2.195,1.144s-.958-.279-2.515-1.224c-2.754-1.663-2.847-1.743-2.913-2.647a29.079,29.079,0,0,1,.7-5.708,28.547,28.547,0,0,1,2.129-6.373c.824-1.543.8-1.929-.107-2.74-.811-.719-1.45-1.038-1.876-.932a3.431,3.431,0,0,0-.891.612A32.135,32.135,0,0,1,50,173.988c-1.849.665-2.248.691-2.913.119a34.225,34.225,0,0,1-3.579-3.592c-.293-.559-.226-1.011.359-2.714a30.63,30.63,0,0,1,5.189-9.659c.931-1.064.984-1.53.319-2.421a1.786,1.786,0,0,1-.373-2.1,32.513,32.513,0,0,1,2.768-2.4c2.474-1.982,2.541-2.035,3.166-2.035.692,0,.719.013,2.222,1.8a76.69,76.69,0,0,0,14.768,13.171,83.073,83.073,0,0,0,10.909,6.093,77.406,77.406,0,0,0,9.113,3.419,73.391,73.391,0,0,0,29.669,2.714,74.427,74.427,0,0,0,37.518-15.339,78.444,78.444,0,0,0,10.909-10.591c2.209-2.687,2.315-2.793,3.007-2.793A1.922,1.922,0,0,1,173.983,147.9Z" transform="translate(-6.717 -5.703)"/><path d="M284.6,64.348a20.624,20.624,0,0,1-8.43-1.71,20.767,20.767,0,0,1-11.16-11.73,24.079,24.079,0,0,1-1.59-8.82,23.31,23.31,0,0,1,1.59-8.76,19.44,19.44,0,0,1,4.44-6.75,19.991,19.991,0,0,1,6.72-4.32,22.727,22.727,0,0,1,8.43-1.53h23.64v7.62H284.6a13.829,13.829,0,0,0-5.43,1.05,12.849,12.849,0,0,0-4.29,2.91,13.381,13.381,0,0,0-2.82,4.44,15.356,15.356,0,0,0-1.02,5.7,15.659,15.659,0,0,0,1.02,5.7,13.576,13.576,0,0,0,2.82,4.53,12.988,12.988,0,0,0,4.29,2.97,13.5,13.5,0,0,0,5.43,1.08h23.64v7.62Z" transform="translate(-6.717 -5.703)"/><path d="M359.6,64.348l-6.54-10.98h-20.64l3.6-6.18H349.4l-9.72-16.32-19.8,33.48h-8.7l25.08-41.76a5.785,5.785,0,0,1,1.56-1.8,3.552,3.552,0,0,1,2.16-.66,3.424,3.424,0,0,1,2.13.66,6.012,6.012,0,0,1,1.53,1.8l25.14,41.76Z" transform="translate(-6.717 -5.703)"/><path d="M427.461,64.348l-8.339-30.66-12.361,28.38a5.984,5.984,0,0,1-1.59,2.13,3.563,3.563,0,0,1-2.309.75,4.057,4.057,0,0,1-3.9-2.88l-12.3-28.38-8.341,30.66h-7.5l11.221-41.04a3.62,3.62,0,0,1,3.78-3.12,4.159,4.159,0,0,1,2.25.66,4.112,4.112,0,0,1,1.59,1.92L403.1,53.608l13.441-30.84a3.741,3.741,0,0,1,3.66-2.58q2.759,0,3.66,3.12l11.159,41.04Z" transform="translate(-6.717 -5.703)"/><path d="M439.7,64.348V20.728h31.92a21.75,21.75,0,0,1,5.79.72,13.065,13.065,0,0,1,4.47,2.13,9.553,9.553,0,0,1,2.88,3.54,11.2,11.2,0,0,1,1.02,4.89,12.492,12.492,0,0,1-.48,3.66,8.557,8.557,0,0,1-1.32,2.67,8.2,8.2,0,0,1-1.95,1.86,8.456,8.456,0,0,1-2.31,1.11,9.816,9.816,0,0,1,4.92,3.48,10.2,10.2,0,0,1,1.92,6.36,14.268,14.268,0,0,1-.99,5.43,11.854,11.854,0,0,1-2.82,4.17,12.374,12.374,0,0,1-4.44,2.67,17.152,17.152,0,0,1-5.79.93Zm13.14-18.96v-6.42h18.84a7.844,7.844,0,0,0,4.8-1.2q1.56-1.2,1.56-4.08a5.19,5.19,0,0,0-.66-2.79,4.314,4.314,0,0,0-1.89-1.62,9.306,9.306,0,0,0-2.94-.75,36.634,36.634,0,0,0-3.81-.18h-21.42v28.44H469.4a22.2,22.2,0,0,0,3.78-.3,9.629,9.629,0,0,0,3-.99,5.248,5.248,0,0,0,1.95-1.77,4.931,4.931,0,0,0,.69-2.7,5.25,5.25,0,0,0-1.68-4.17,7.266,7.266,0,0,0-4.92-1.47Z" transform="translate(-6.717 -5.703)"/><path d="M533.42,64.348l-11.04-12.12H506.06v-6.72h18.18q4.141,0,6.24-2.25t2.1-6.51q0-4.26-2.191-6.33a8.6,8.6,0,0,0-6.15-2.07H500.48v36h-7.56V20.728h31.32a18.754,18.754,0,0,1,6.66,1.11,13.652,13.652,0,0,1,4.98,3.18A13.841,13.841,0,0,1,539,30.028a19.064,19.064,0,0,1,1.08,6.6,16.6,16.6,0,0,1-2.371,9.15,13.256,13.256,0,0,1-6.629,5.31l13.139,13.26Z" transform="translate(-6.717 -5.703)"/><path d="M548.3,64.348V20.728h7.62v43.62Z" transform="translate(-6.717 -5.703)"/><path d="M563.6,64.348V20.728h25.26a22.73,22.73,0,0,1,8.519,1.56,19.76,19.76,0,0,1,6.721,4.38,20.078,20.078,0,0,1,4.41,6.75,22.933,22.933,0,0,1,1.59,8.67,24.1,24.1,0,0,1-1.59,8.82,21.38,21.38,0,0,1-4.41,7.05,20.516,20.516,0,0,1-6.721,4.68,20.979,20.979,0,0,1-8.519,1.71Zm25.26-7.62a13.506,13.506,0,0,0,5.43-1.08,13.1,13.1,0,0,0,7.169-7.5,15.681,15.681,0,0,0,1.021-5.7,15.443,15.443,0,0,0-1.021-5.67,13.066,13.066,0,0,0-2.849-4.47,13.2,13.2,0,0,0-4.32-2.91,13.84,13.84,0,0,0-5.43-1.05h-17.7v28.38Z" transform="translate(-6.717 -5.703)"/><path d="M635.96,64.348a20.624,20.624,0,0,1-8.43-1.71,20.761,20.761,0,0,1-11.159-11.73,24.058,24.058,0,0,1-1.591-8.82,23.291,23.291,0,0,1,1.591-8.76,19.424,19.424,0,0,1,4.439-6.75,20,20,0,0,1,6.72-4.32,22.727,22.727,0,0,1,8.43-1.53H659.6v7.62H635.96a13.833,13.833,0,0,0-5.43,1.05,12.835,12.835,0,0,0-4.289,2.91,13.383,13.383,0,0,0-2.821,4.44,15.376,15.376,0,0,0-1.02,5.7,15.68,15.68,0,0,0,1.02,5.7,13.578,13.578,0,0,0,2.821,4.53,12.974,12.974,0,0,0,4.289,2.97,13.5,13.5,0,0,0,5.43,1.08h18.661V45.388H634.94v-6.42H662.3v25.38Z" transform="translate(-6.717 -5.703)"/><path d="M669.019,64.348V20.728h38.94v7.62h-31.38v28.38h31.44v7.62Zm13.14-18.96v-6.42h24.179v6.42Z" transform="translate(-6.717 -5.703)"/><path d="M303.682,80.728h7.44v24.36a26.511,26.511,0,0,1-1.32,8.79,14.435,14.435,0,0,1-4.14,6.21,18.018,18.018,0,0,1-7.29,3.66,49.24,49.24,0,0,1-21.6,0,18,18,0,0,1-7.29-3.66,14.408,14.408,0,0,1-4.14-6.21,26.459,26.459,0,0,1-1.32-8.79V80.728h7.86v24.36a17.316,17.316,0,0,0,.81,5.639,8.393,8.393,0,0,0,2.64,3.84,11.639,11.639,0,0,0,4.89,2.191,41.82,41.82,0,0,0,15.12,0,11.645,11.645,0,0,0,4.89-2.191,8.4,8.4,0,0,0,2.64-3.84,17.316,17.316,0,0,0,.81-5.639Z" transform="translate(-6.717 -5.703)"/><path d="M324.8,92.428v31.919h-7.259v-39.6a4.959,4.959,0,0,1,1.049-3.33,3.552,3.552,0,0,1,2.85-1.23,3.832,3.832,0,0,1,1.621.36,5.84,5.84,0,0,1,1.62,1.2l30.779,30.54V80.368h7.26v39.96a4.936,4.936,0,0,1-1.05,3.359,3.457,3.457,0,0,1-2.73,1.2,4.875,4.875,0,0,1-3.48-1.62Z" transform="translate(-6.717 -5.703)"/><path d="M370.221,124.347V80.728h7.619v43.619Z" transform="translate(-6.717 -5.703)"/><path d="M382.58,80.728h9.3l19.8,33.6,19.739-33.6h8.761l-25.14,41.759a5.791,5.791,0,0,1-1.56,1.8,3.466,3.466,0,0,1-2.1.659,3.557,3.557,0,0,1-2.159-.659,5.765,5.765,0,0,1-1.56-1.8Z" transform="translate(-6.717 -5.703)"/><path d="M444.56,124.347V80.728H483.5v7.62H452.12v28.379h31.44v7.62Zm13.14-18.96V98.968h24.179v6.419Z" transform="translate(-6.717 -5.703)"/><path d="M530.3,124.347l-11.04-12.12h-16.32v-6.719h18.18q4.14,0,6.24-2.25t2.1-6.51q0-4.26-2.19-6.33a8.6,8.6,0,0,0-6.15-2.07h-23.76v36H489.8V80.728h31.32a18.754,18.754,0,0,1,6.66,1.11,13.652,13.652,0,0,1,4.98,3.18,13.825,13.825,0,0,1,3.12,5.01,19.04,19.04,0,0,1,1.08,6.6,16.61,16.61,0,0,1-2.37,9.15,13.254,13.254,0,0,1-6.63,5.31l13.14,13.259Z" transform="translate(-6.717 -5.703)"/><path d="M544.759,124.347v-7.62h32.7a6.594,6.594,0,0,0,4.71-1.559,5.431,5.431,0,0,0,1.65-4.141,5.256,5.256,0,0,0-1.65-4.229,7.046,7.046,0,0,0-4.71-1.411h-20.04a15.761,15.761,0,0,1-5.55-.929,11.993,11.993,0,0,1-4.2-2.58,11.336,11.336,0,0,1-2.64-3.93,13.062,13.062,0,0,1-.93-4.98,13.445,13.445,0,0,1,.87-4.89,10.436,10.436,0,0,1,2.58-3.87,12.215,12.215,0,0,1,4.23-2.55,16.571,16.571,0,0,1,5.76-.93h31.32v7.62h-31.32a5.592,5.592,0,0,0-4.08,1.41,5.248,5.248,0,0,0-1.44,3.93,5.085,5.085,0,0,0,1.47,3.9,5.589,5.589,0,0,0,3.99,1.38h19.98q6.66,0,10.11,3.12t3.45,9.479a15,15,0,0,1-.84,5.1,11.014,11.014,0,0,1-2.52,4.05,11.519,11.519,0,0,1-4.23,2.669,16.9,16.9,0,0,1-5.97.96Z" transform="translate(-6.717 -5.703)"/><path d="M597.679,124.347V80.728h7.62v43.619Z" transform="translate(-6.717 -5.703)"/><path d="M626.958,124.347v-36H610.4v-7.62h40.74v7.62h-16.56v36Z" transform="translate(-6.717 -5.703)"/><path d="M676.038,124.347V107.788l-23.161-27.06h10.26l16.98,20.1,17.04-20.1h9.72l-23.22,27.06v16.559Z" transform="translate(-6.717 -5.703)"/><path d="M312.562,196.314l-12.88-14.14h-19.04v-7.84h21.21q4.83,0,7.28-2.625t2.45-7.595q0-4.97-2.555-7.385t-7.175-2.415h-27.72v42h-8.82v-50.89h36.54a21.89,21.89,0,0,1,7.77,1.295,15.944,15.944,0,0,1,5.81,3.71,16.134,16.134,0,0,1,3.64,5.845,22.213,22.213,0,0,1,1.26,7.7,19.371,19.371,0,0,1-2.765,10.675,15.458,15.458,0,0,1-7.735,6.195l15.33,15.47Z" transform="translate(-6.717 -5.703)"/><path d="M351.481,196.314a24.06,24.06,0,0,1-9.835-2,24.228,24.228,0,0,1-13.02-13.685,28.082,28.082,0,0,1-1.855-10.29,27.19,27.19,0,0,1,1.855-10.22,22.683,22.683,0,0,1,5.18-7.875,23.328,23.328,0,0,1,7.84-5.04,26.514,26.514,0,0,1,9.835-1.785h12.39a27.2,27.2,0,0,1,10.115,1.82,22.53,22.53,0,0,1,12.985,12.985,27.2,27.2,0,0,1,1.821,10.115,28.1,28.1,0,0,1-1.856,10.29,24.672,24.672,0,0,1-5.18,8.225,24.322,24.322,0,0,1-7.875,5.46,24.66,24.66,0,0,1-10.01,2Zm12.39-8.89a16.179,16.179,0,0,0,6.44-1.26,15.209,15.209,0,0,0,8.4-8.75,18.3,18.3,0,0,0,1.19-6.65,18.023,18.023,0,0,0-1.19-6.615,14.964,14.964,0,0,0-8.4-8.61,16.594,16.594,0,0,0-6.44-1.225h-12.39a16.147,16.147,0,0,0-6.335,1.225,14.985,14.985,0,0,0-5,3.4,15.6,15.6,0,0,0-3.29,5.18,17.929,17.929,0,0,0-1.19,6.65,18.278,18.278,0,0,0,1.19,6.65,15.816,15.816,0,0,0,3.29,5.285,15.15,15.15,0,0,0,5,3.465,15.745,15.745,0,0,0,6.335,1.26Z" transform="translate(-6.717 -5.703)"/><path d="M395.581,196.314v-50.89h37.24a25.387,25.387,0,0,1,6.755.84,15.266,15.266,0,0,1,5.215,2.485,11.167,11.167,0,0,1,3.36,4.13,13.065,13.065,0,0,1,1.189,5.705,14.578,14.578,0,0,1-.559,4.27,9.981,9.981,0,0,1-1.54,3.115,9.547,9.547,0,0,1-2.276,2.17,9.841,9.841,0,0,1-2.694,1.295,11.442,11.442,0,0,1,5.739,4.06,11.9,11.9,0,0,1,2.241,7.42,16.648,16.648,0,0,1-1.155,6.335,13.816,13.816,0,0,1-3.29,4.865,14.423,14.423,0,0,1-5.18,3.115,20,20,0,0,1-6.755,1.085Zm15.33-22.12V166.7h21.98q3.78,0,5.6-1.4t1.82-4.76a6.068,6.068,0,0,0-.77-3.255,5.039,5.039,0,0,0-2.206-1.89,10.853,10.853,0,0,0-3.429-.875,42.764,42.764,0,0,0-4.446-.21H404.471v33.18h25.76a25.94,25.94,0,0,0,4.41-.35,11.21,11.21,0,0,0,3.5-1.155,6.119,6.119,0,0,0,2.275-2.065,5.748,5.748,0,0,0,.805-3.15,6.12,6.12,0,0,0-1.961-4.865,8.475,8.475,0,0,0-5.739-1.715Z" transform="translate(-6.717 -5.703)"/><path d="M480.911,196.314a24.053,24.053,0,0,1-9.835-2,24.225,24.225,0,0,1-13.021-13.685,28.082,28.082,0,0,1-1.854-10.29,27.19,27.19,0,0,1,1.854-10.22,22.7,22.7,0,0,1,5.18-7.875,23.333,23.333,0,0,1,7.841-5.04,26.506,26.506,0,0,1,9.835-1.785H493.3a27.206,27.206,0,0,1,10.116,1.82A22.532,22.532,0,0,1,516.4,160.229a27.2,27.2,0,0,1,1.82,10.115,28.124,28.124,0,0,1-1.854,10.29,24.69,24.69,0,0,1-5.181,8.225,24.332,24.332,0,0,1-7.875,5.46,24.66,24.66,0,0,1-10.01,2Zm12.389-8.89a16.188,16.188,0,0,0,6.441-1.26,15.211,15.211,0,0,0,8.4-8.75,18.3,18.3,0,0,0,1.191-6.65,18.024,18.024,0,0,0-1.191-6.615,14.967,14.967,0,0,0-8.4-8.61,16.6,16.6,0,0,0-6.441-1.225H480.911a16.143,16.143,0,0,0-6.335,1.225,14.979,14.979,0,0,0-5.006,3.4,15.6,15.6,0,0,0-3.29,5.18,17.929,17.929,0,0,0-1.19,6.65,18.278,18.278,0,0,0,1.19,6.65,15.816,15.816,0,0,0,3.29,5.285,15.144,15.144,0,0,0,5.006,3.465,15.742,15.742,0,0,0,6.335,1.26Z" transform="translate(-6.717 -5.703)"/><path d="M540.2,196.314v-42h-19.32v-8.89h47.53v8.89h-19.32v42Z" transform="translate(-6.717 -5.703)"/><path d="M574.428,196.314v-50.89h8.89v50.89Z" transform="translate(-6.717 -5.703)"/><path d="M615.518,196.314a24.056,24.056,0,0,1-9.835-2,24.22,24.22,0,0,1-13.02-13.685,28.062,28.062,0,0,1-1.855-10.29,27.17,27.17,0,0,1,1.855-10.22,22.694,22.694,0,0,1,5.179-7.875,23.333,23.333,0,0,1,7.841-5.04,26.51,26.51,0,0,1,9.835-1.785H643.1v8.89h-27.58a16.147,16.147,0,0,0-6.335,1.225,15,15,0,0,0-5.006,3.4,15.62,15.62,0,0,0-3.29,5.18,17.929,17.929,0,0,0-1.189,6.65,18.278,18.278,0,0,0,1.189,6.65,15.832,15.832,0,0,0,3.29,5.285,15.164,15.164,0,0,0,5.006,3.465,15.745,15.745,0,0,0,6.335,1.26H643.1v8.89Z" transform="translate(-6.717 -5.703)"/><path d="M649.957,196.314v-8.89h38.149a7.69,7.69,0,0,0,5.5-1.82,6.336,6.336,0,0,0,1.926-4.83,6.136,6.136,0,0,0-1.926-4.935,8.223,8.223,0,0,0-5.5-1.645h-23.38a18.37,18.37,0,0,1-6.475-1.085,13.991,13.991,0,0,1-4.9-3.01,13.236,13.236,0,0,1-3.08-4.585,15.225,15.225,0,0,1-1.085-5.81A15.659,15.659,0,0,1,650.2,154a12.167,12.167,0,0,1,3.009-4.515,14.253,14.253,0,0,1,4.935-2.975,19.342,19.342,0,0,1,6.721-1.085h36.54v8.89h-36.54a6.522,6.522,0,0,0-4.761,1.645,6.128,6.128,0,0,0-1.68,4.585,5.938,5.938,0,0,0,1.715,4.55,6.526,6.526,0,0,0,4.655,1.61h23.31q7.772,0,11.8,3.64t4.024,11.06a17.521,17.521,0,0,1-.979,5.95,12.859,12.859,0,0,1-2.941,4.725,13.424,13.424,0,0,1-4.934,3.115,19.737,19.737,0,0,1-6.966,1.12Z" transform="translate(-6.717 -5.703)"/></svg>